HIERARCHY
ROOT Hips
{
	OFFSET 0.000000 71.206352 2.654994
	CHANNELS 6 Xposition Yposition Zposition Xrotation Yrotation Zrotation
	JOINT Pelvis
	{
		OFFSET 0.000000 0.000000 0.000000
		CHANNELS 3 Xrotation Yrotation Zrotation
		JOINT LeftUpLeg
		{
			OFFSET 6.797117 -2.508530 -1.318654
			CHANNELS 3 Xrotation Yrotation Zrotation
			JOINT LeftLeg
			{
				OFFSET 2.604768 -29.125713 0.690240
				CHANNELS 3 Xrotation Yrotation Zrotation
				JOINT LeftFoot
				{
					OFFSET 2.495626 -29.462662 -0.266779
					CHANNELS 3 Xrotation Yrotation Zrotation
					JOINT LeftToeBase
					{
						OFFSET 3.145477 -8.630991 16.059889
						CHANNELS 3 Xrotation Yrotation Zrotation
						End Site
						{
							OFFSET 0.000000 18.501570 0.000000
						}
					}
				}
			}
			JOINT Left_ShortSleeve
			{
				OFFSET 1.173896 -10.418373 1.153777
				CHANNELS 3 Xrotation Yrotation Zrotation
				End Site
				{
					OFFSET 0.000000 19.898849 0.000000
				}
			}
		}
		JOINT RightUpLeg
		{
			OFFSET -6.797117 -2.508530 -1.318654
			CHANNELS 3 Xrotation Yrotation Zrotation
			JOINT RightLeg
			{
				OFFSET -2.618195 -29.124561 0.688025
				CHANNELS 3 Xrotation Yrotation Zrotation
				JOINT RightFoot
				{
					OFFSET -2.482200 -29.463818 -0.264565
					CHANNELS 3 Xrotation Yrotation Zrotation
					JOINT RightToeBase
					{
						OFFSET -3.115344 -8.682778 16.113401
						CHANNELS 3 Xrotation Yrotation Zrotation
						End Site
						{
							OFFSET 0.000000 18.567112 0.000000
						}
					}
				}
			}
			JOINT Right_ShortSleeve
			{
				OFFSET -1.173896 -10.418373 1.153777
				CHANNELS 3 Xrotation Yrotation Zrotation
				End Site
				{
					OFFSET 0.000000 19.898849 0.000000
				}
			}
		}
	}
	JOINT Spine
	{
		OFFSET 0.000000 13.368111 0.470529
		CHANNELS 3 Xrotation Yrotation Zrotation
		JOINT Spine1
		{
			OFFSET 0.146996 13.837402 0.538789
			CHANNELS 3 Xrotation Yrotation Zrotation
			JOINT Spine2
			{
				OFFSET 0.167995 16.242874 -1.435485
				CHANNELS 3 Xrotation Yrotation Zrotation
				JOINT Neck
				{
					OFFSET 0.217193 18.631516 -1.679142
					CHANNELS 3 Xrotation Yrotation Zrotation
					JOINT Head
					{
						OFFSET 0.000000 6.599380 1.385859
						CHANNELS 3 Xrotation Yrotation Zrotation
						JOINT Hat
						{
							OFFSET -0.532184 27.220581 -10.096070
							CHANNELS 3 Xrotation Yrotation Zrotation
							End Site
							{
								OFFSET 0.000000 22.029861 0.000000
							}
						}
						JOINT HairD
						{
							OFFSET -10.777430 17.437408 -1.325938
							CHANNELS 3 Xrotation Yrotation Zrotation
							JOINT HairD1
							{
								OFFSET -3.290256 -11.051163 1.062188
								CHANNELS 3 Xrotation Yrotation Zrotation
								End Site
								{
									OFFSET 0.000000 11.579391 0.000000
								}
							}
						}
						JOINT HairB
						{
							OFFSET -10.777430 17.437408 1.467893
							CHANNELS 3 Xrotation Yrotation Zrotation
							JOINT HairB1
							{
								OFFSET -1.561211 -12.956329 3.590162
								CHANNELS 3 Xrotation Yrotation Zrotation
								End Site
								{
									OFFSET 0.000000 13.534882 0.000000
								}
							}
						}
						JOINT HairA
						{
							OFFSET 9.713062 17.437408 1.467893
							CHANNELS 3 Xrotation Yrotation Zrotation
							JOINT HairA1
							{
								OFFSET 1.561211 -12.956329 3.590162
								CHANNELS 3 Xrotation Yrotation Zrotation
								End Site
								{
									OFFSET 0.000000 13.534882 0.000000
								}
							}
						}
						JOINT HairC
						{
							OFFSET 9.713062 17.437408 -1.325938
							CHANNELS 3 Xrotation Yrotation Zrotation
							JOINT HairC1
							{
								OFFSET 3.290255 -11.051163 1.062188
								CHANNELS 3 Xrotation Yrotation Zrotation
								End Site
								{
									OFFSET 0.000000 11.579391 0.000000
								}
							}
						}
					}
				}
				JOINT LeftShoulder
				{
					OFFSET 5.101767 15.108002 -2.763695
					CHANNELS 3 Xrotation Yrotation Zrotation
					JOINT LeftArm
					{
						OFFSET 9.825546 2.506256 -1.597438
						CHANNELS 3 Xrotation Yrotation Zrotation
						JOINT LeftForeArm
						{
							OFFSET 21.924620 0.000000 -1.351923
							CHANNELS 3 Xrotation Yrotation Zrotation
							JOINT LeftHand
							{
								OFFSET 33.867149 -0.000336 -0.895185
								CHANNELS 3 Xrotation Yrotation Zrotation
								JOINT LeftHandThumb1
								{
									OFFSET 6.800735 -1.610214 3.624442
									CHANNELS 3 Xrotation Yrotation Zrotation
									JOINT LeftHandThumb2
									{
										OFFSET 2.133118 -1.047562 2.197256
										CHANNELS 3 Xrotation Yrotation Zrotation
										JOINT LeftHandThumb3
										{
											OFFSET 2.939781 -1.955193 1.239051
											CHANNELS 3 Xrotation Yrotation Zrotation
											End Site
											{
												OFFSET 0.000000 3.741707 0.000000
											}
										}
									}
								}
								JOINT LeftHandIndex1
								{
									OFFSET 14.184837 0.837936 3.778969
									CHANNELS 3 Xrotation Yrotation Zrotation
									JOINT LeftHandIndex2
									{
										OFFSET 3.454674 -0.747025 -0.349037
										CHANNELS 3 Xrotation Yrotation Zrotation
										JOINT LeftHandIndex3
										{
											OFFSET 2.708313 -1.000595 -0.200658
											CHANNELS 3 Xrotation Yrotation Zrotation
											End Site
											{
												OFFSET 0.000000 2.894211 0.000000
											}
										}
									}
								}
								JOINT LeftHandMiddle1
								{
									OFFSET 13.765343 0.551865 -0.058510
									CHANNELS 3 Xrotation Yrotation Zrotation
									JOINT LeftHandMiddle2
									{
										OFFSET 3.329315 -0.830414 -0.218270
										CHANNELS 3 Xrotation Yrotation Zrotation
										JOINT LeftHandMiddle3
										{
											OFFSET 3.521812 -1.082275 -0.230450
											CHANNELS 3 Xrotation Yrotation Zrotation
											End Site
											{
												OFFSET 0.000000 3.691559 0.000000
											}
										}
									}
								}
								JOINT LeftHandRing1
								{
									OFFSET 13.969360 -0.122360 -3.062001
									CHANNELS 3 Xrotation Yrotation Zrotation
									JOINT LeftHandRing2
									{
										OFFSET 3.063065 -0.760193 -0.203345
										CHANNELS 3 Xrotation Yrotation Zrotation
										JOINT LeftHandRing3
										{
											OFFSET 3.200409 -0.861923 -0.256632
											CHANNELS 3 Xrotation Yrotation Zrotation
											End Site
											{
												OFFSET 0.000000 3.324356 0.000000
											}
										}
									}
								}
								JOINT LeftHandPinky1
								{
									OFFSET 13.134644 -0.420990 -5.726565
									CHANNELS 3 Xrotation Yrotation Zrotation
									JOINT LeftHandPinky2
									{
										OFFSET 2.705887 -0.872284 -0.187246
										CHANNELS 3 Xrotation Yrotation Zrotation
										JOINT LeftHandPinky3
										{
											OFFSET 2.653091 -0.882462 -0.224701
											CHANNELS 3 Xrotation Yrotation Zrotation
											End Site
											{
												OFFSET 0.000000 2.805023 0.000000
											}
										}
									}
								}
							}
							JOINT Left_Sleeve
							{
								OFFSET 6.611050 -0.646652 0.631114
								CHANNELS 3 Xrotation Yrotation Zrotation
								End Site
								{
									OFFSET 0.000000 20.275742 0.000000
								}
							}
						}
					}
				}
				JOINT RightShoulder
				{
					OFFSET -5.731749 15.108002 -2.763695
					CHANNELS 3 Xrotation Yrotation Zrotation
					JOINT RightArm
					{
						OFFSET -9.825546 2.506256 -1.597438
						CHANNELS 3 Xrotation Yrotation Zrotation
						JOINT RightForeArm
						{
							OFFSET -21.924620 0.000000 -1.351923
							CHANNELS 3 Xrotation Yrotation Zrotation
							JOINT RightHand
							{
								OFFSET -33.867149 -0.000336 -0.895185
								CHANNELS 3 Xrotation Yrotation Zrotation
								JOINT RightHandThumb1
								{
									OFFSET -6.800735 -1.610214 3.624442
									CHANNELS 3 Xrotation Yrotation Zrotation
									JOINT RightHandThumb2
									{
										OFFSET -2.133118 -1.047562 2.197256
										CHANNELS 3 Xrotation Yrotation Zrotation
										JOINT RightHandThumb3
										{
											OFFSET -2.939781 -1.955193 1.239051
											CHANNELS 3 Xrotation Yrotation Zrotation
											End Site
											{
												OFFSET 0.000000 3.741707 0.000000
											}
										}
									}
								}
								JOINT RightHandIndex1
								{
									OFFSET -14.184837 0.837936 3.778969
									CHANNELS 3 Xrotation Yrotation Zrotation
									JOINT RightHandIndex2
									{
										OFFSET -3.454674 -0.747025 -0.349037
										CHANNELS 3 Xrotation Yrotation Zrotation
										JOINT RightHandIndex3
										{
											OFFSET -2.708313 -1.000595 -0.200658
											CHANNELS 3 Xrotation Yrotation Zrotation
											End Site
											{
												OFFSET 0.000000 2.894211 0.000000
											}
										}
									}
								}
								JOINT RightHandMiddle1
								{
									OFFSET -13.765343 0.551865 -0.058511
									CHANNELS 3 Xrotation Yrotation Zrotation
									JOINT RightHandMiddle2
									{
										OFFSET -3.329315 -0.830414 -0.218269
										CHANNELS 3 Xrotation Yrotation Zrotation
										JOINT RightHandMiddle3
										{
											OFFSET -3.521812 -1.082275 -0.230450
											CHANNELS 3 Xrotation Yrotation Zrotation
											End Site
											{
												OFFSET 0.000000 3.691559 0.000000
											}
										}
									}
								}
								JOINT RightHandRing1
								{
									OFFSET -13.969353 -0.122360 -3.062001
									CHANNELS 3 Xrotation Yrotation Zrotation
									JOINT RightHandRing2
									{
										OFFSET -3.063072 -0.760193 -0.203345
										CHANNELS 3 Xrotation Yrotation Zrotation
										JOINT RightHandRing3
										{
											OFFSET -3.200409 -0.861923 -0.256632
											CHANNELS 3 Xrotation Yrotation Zrotation
											End Site
											{
												OFFSET 0.000000 3.324356 0.000000
											}
										}
									}
								}
								JOINT RightHandPinky1
								{
									OFFSET -13.134644 -0.420990 -5.726565
									CHANNELS 3 Xrotation Yrotation Zrotation
									JOINT RightHandPinky2
									{
										OFFSET -2.705887 -0.872284 -0.187247
										CHANNELS 3 Xrotation Yrotation Zrotation
										JOINT RightHandPinky3
										{
											OFFSET -2.653091 -0.882462 -0.224700
											CHANNELS 3 Xrotation Yrotation Zrotation
											End Site
											{
												OFFSET 0.000000 2.805023 0.000000
											}
										}
									}
								}
							}
							JOINT Right_Sleeve
							{
								OFFSET -6.611050 -0.646652 0.631114
								CHANNELS 3 Xrotation Yrotation Zrotation
								End Site
								{
									OFFSET 0.000000 20.275742 0.000000
								}
							}
						}
					}
				}
				JOINT Bind_Right_JacketString
				{
					OFFSET -3.534774 11.969604 7.200667
					CHANNELS 3 Xrotation Yrotation Zrotation
					JOINT Bind_Right_JacketString1
					{
						OFFSET -0.319887 -6.102631 2.794061
						CHANNELS 3 Xrotation Yrotation Zrotation
						End Site
						{
							OFFSET 0.000000 6.719467 0.000000
						}
					}
				}
				JOINT Bind_Left_JacketString
				{
					OFFSET 2.904793 11.969604 7.200667
					CHANNELS 3 Xrotation Yrotation Zrotation
					JOINT Bind_Left_JacketString1
					{
						OFFSET 0.364847 -5.904457 3.186764
						CHANNELS 3 Xrotation Yrotation Zrotation
						End Site
						{
							OFFSET 0.000000 6.719460 0.000000
						}
					}
				}
				JOINT HairE
				{
					OFFSET 5.915198 17.612656 -11.592244
					CHANNELS 3 Xrotation Yrotation Zrotation
					JOINT HairE1
					{
						OFFSET 0.289203 -7.171906 -1.284488
						CHANNELS 3 Xrotation Yrotation Zrotation
						End Site
						{
							OFFSET 0.000000 7.291763 0.000000
						}
					}
				}
				JOINT HairF
				{
					OFFSET -0.864797 17.612656 -11.592244
					CHANNELS 3 Xrotation Yrotation Zrotation
					JOINT HairF1
					{
						OFFSET -0.000000 -14.087097 -2.127508
						CHANNELS 3 Xrotation Yrotation Zrotation
						End Site
						{
							OFFSET 0.000000 14.246841 0.000000
						}
					}
				}
				JOINT HairG
				{
					OFFSET -8.087694 17.612656 -11.592244
					CHANNELS 3 Xrotation Yrotation Zrotation
					JOINT HairG1
					{
						OFFSET -0.293551 -6.081375 -0.910136
						CHANNELS 3 Xrotation Yrotation Zrotation
						End Site
						{
							OFFSET 0.000000 6.156113 0.000000
						}
					}
				}
			}
		}
	}
	JOINT Pouch
	{
		OFFSET 0.000000 4.394547 10.847303
		CHANNELS 3 Xrotation Yrotation Zrotation
		End Site
		{
			OFFSET 0.000000 21.880577 0.000000
		}
	}
	JOINT Bag
	{
		OFFSET -13.229022 4.813034 -0.593262
		CHANNELS 3 Xrotation Yrotation Zrotation
		End Site
		{
			OFFSET 0.000000 21.880577 0.000000
		}
	}
	JOINT OccupyGuyFacialAnim_Joint
	{
		OFFSET 1.000000 -70.206352 -1.654994
		CHANNELS 3 Xrotation Yrotation Zrotation
		End Site
		{
			OFFSET 0.000000 21.880581 0.000000
		}
	}
}
MOTION
Frames: 4
Frame Time: 0.016667
-4.201259 66.255005 -1.247868 -16.012651 -38.347196 -7.151643 -0.000000 0.000003 0.000001 -23.892241 3.258571 9.046467 44.013944 -8.458163 0.072763 3.138095 1.308162 -7.551087 0.000001 0.000000 -0.000000 -0.000000 0.000000 0.000001 5.837678 -19.440004 -9.379638 39.231316 -9.958599 0.461187 -30.423893 -2.122281 9.598262 -0.000000 -0.000001 0.000000 0.000000 0.000001 -0.000000 6.000017 1.584075 -0.530574 12.035805 3.214026 -1.555561 12.035808 3.214019 -1.555561 0.808824 2.930022 5.847935 3.843914 16.036794 -7.029034 0.000001 -0.000000 -0.000000 0.000001 -0.000000 -0.000000 -0.000001 -0.000000 -0.000000 0.000001 -0.000000 0.000000 0.000001 -0.000000 0.000000 0.000001 -0.000000 0.000000 0.000001 -0.000000 0.000000 0.000001 -0.000000 -0.000000 -0.000001 -0.000000 -0.000000 -0.675794 6.367326 14.435407 -28.662455 -40.594184 1.667075 11.726502 -26.281043 -9.556263 6.422916 -4.232944 15.159497 12.083837 6.808254 -10.437155 -11.404571 -12.474139 5.911088 -0.000000 0.000001 -0.000000 -10.873196 -18.388297 -30.619608 -9.841410 -5.057861 -44.524863 -0.000003 -0.000001 -0.000001 -6.522610 -11.138778 -32.573811 -8.991684 -6.926195 -43.531914 -0.000000 -0.000000 -0.000001 -5.181454 -1.951227 -37.877289 -9.489029 -7.118363 -48.400448 0.000000 0.000000 -0.000001 -0.755525 7.954849 -30.660449 -12.266905 -8.701589 -58.639742 0.000000 0.000000 0.000000 -0.000000 0.000000 0.000000 0.346724 -1.487428 -4.124329 -25.510565 31.751316 -3.542127 0.852702 28.688690 10.278856 -9.259176 20.157217 4.630606 26.528812 1.031198 28.807296 -7.127391 3.190602 -7.590121 0.000001 0.000001 -0.000003 -7.871431 17.743944 16.902517 -5.800760 3.168232 31.719504 -0.000001 -0.000000 -0.000002 -4.798108 8.619150 19.407185 -5.438217 5.027075 30.592458 -0.000003 -0.000003 -0.000000 -1.135958 -0.351210 25.388640 -7.072955 7.146393 35.088765 0.000003 0.000000 -0.000000 3.110082 -9.744379 18.858805 -11.290881 10.821264 44.945947 -0.000000 -0.000001 -0.000000 -0.000000 -0.000001 0.000000 -0.000001 0.000002 0.000000 -0.000001 0.000002 0.000000 -0.000001 0.000002 0.000000 -0.000001 0.000002 0.000000 -0.000001 0.000002 0.000000 0.000002 0.000001 0.000000 -0.000001 0.000002 0.000000 -0.000001 0.000002 0.000000 -0.000001 0.000002 0.000000 0.000000 0.000001 -0.000001 -0.000000 0.000003 0.000001 -0.000000 0.000003 0.000001 -0.000000 0.000003 0.000001 
-5.693309 70.013298 -0.953450 -16.433427 -38.838030 -7.317511 0.000000 0.000002 0.000000 -17.694959 6.460272 9.253804 30.776580 -10.034822 1.960114 18.927950 0.212377 -10.271221 0.000001 0.000003 -0.000001 0.000000 0.000002 0.000001 11.712651 -19.081260 -6.979893 28.915179 -7.127042 0.205492 -18.266859 -1.271782 7.292816 -0.000001 0.000003 -0.000000 -0.000000 -0.000002 -0.000000 5.398862 1.737522 -0.714154 10.847845 3.499683 -2.042199 10.847844 3.499689 -2.042200 3.765083 2.490157 6.424211 6.751135 15.504523 -8.701760 0.000001 -0.000001 -0.000000 0.000001 -0.000001 -0.000000 -0.000001 -0.000001 0.000000 0.000001 -0.000001 0.000000 0.000001 -0.000001 0.000000 0.000001 -0.000001 0.000000 0.000001 -0.000001 0.000000 0.000001 -0.000001 -0.000000 -0.000001 -0.000001 0.000000 -1.740825 10.008580 19.408220 -25.765389 -38.120758 5.723277 12.661252 -25.859371 -9.616402 6.194421 -5.728280 15.464793 11.401928 7.195368 -9.513598 -11.407012 -12.478895 5.911422 0.000001 -0.000001 -0.000000 -10.161885 -18.114924 -28.896386 -9.380338 -4.955266 -42.909140 -0.000002 0.000001 -0.000000 -6.161127 -10.927562 -30.915308 -8.578501 -6.801644 -41.904799 -0.000002 -0.000002 -0.000000 -4.981953 -1.820855 -36.250833 -9.130255 -7.072137 -46.766862 -0.000001 0.000001 0.000001 -0.827009 8.030212 -28.993016 -11.963325 -8.759758 -56.991754 0.000000 0.000001 -0.000001 -0.000001 -0.000000 -0.000000 0.297390 -2.580765 -7.092061 -24.498695 33.649969 -6.234200 3.902336 22.110475 9.132151 -10.145086 21.026307 9.190565 26.319699 0.205918 28.126125 -7.104264 3.144213 -7.596183 -0.000001 -0.000000 0.000000 -7.486434 17.416412 16.322276 -5.660063 3.106733 31.158268 0.000001 -0.000002 -0.000002 -4.696320 8.529317 18.833668 -5.317178 4.962121 30.038585 -0.000003 0.000001 0.000000 -1.205096 -0.319116 24.783652 -6.945787 7.095025 34.532798 0.000003 0.000000 0.000002 2.864102 -9.585134 18.167058 -11.156276 10.803449 44.375469 0.000002 0.000001 0.000001 0.000000 0.000001 0.000001 0.000001 0.000003 -0.000001 0.000001 0.000003 -0.000001 0.000001 0.000003 -0.000001 0.000001 0.000003 -0.000001 0.000001 0.000003 -0.000001 0.000001 0.000001 -0.000000 0.000001 0.000003 -0.000001 0.000001 0.000003 -0.000001 0.000001 0.000003 -0.000001 0.000001 0.000001 -0.000000 0.000000 0.000002 0.000000 0.000000 0.000002 0.000000 0.000000 0.000002 0.000000 
-6.715622 73.539688 -0.857661 -15.789768 -39.778574 -6.593121 -0.000000 0.000003 0.000000 -11.184192 8.853762 7.789161 17.180596 -17.013045 3.074943 33.593281 -0.712478 -10.274669 0.000001 0.000001 -0.000001 0.000000 0.000001 -0.000000 11.635100 -17.653695 -6.878380 24.216494 -3.609601 -0.879400 -3.891747 -1.150710 6.971350 -0.000001 0.000003 -0.000001 -0.000000 0.000001 -0.000000 5.048793 1.914978 -0.977189 10.148500 3.743873 -2.337036 10.148494 3.743888 -2.337036 6.185548 2.219083 6.632935 8.363094 15.206687 -10.348298 0.000001 -0.000000 -0.000000 0.000001 -0.000000 -0.000000 0.000001 -0.000001 0.000001 0.000001 -0.000000 -0.000000 0.000001 -0.000000 -0.000000 0.000001 -0.000000 -0.000000 0.000001 -0.000000 -0.000000 0.000001 -0.000000 -0.000000 0.000001 -0.000001 0.000001 -3.167068 13.780726 23.119796 -24.342350 -33.811506 7.712994 11.418955 -27.460414 -9.306668 5.751589 -6.555950 17.227209 10.568318 7.623973 -8.407559 -11.402624 -12.472137 5.913658 -0.000001 0.000001 0.000002 -9.360498 -17.754740 -26.922372 -8.851473 -4.820624 -41.042709 0.000002 -0.000001 0.000000 -5.753115 -10.688192 -28.996154 -8.100180 -6.641334 -40.003110 -0.000000 0.000001 0.000002 -4.749337 -1.679846 -34.342676 -8.709073 -7.004179 -44.842022 -0.000001 0.000000 0.000001 -0.902361 8.099786 -27.020879 -11.604380 -8.817397 -55.052728 0.000000 -0.000000 0.000002 -0.000001 -0.000000 0.000001 0.192154 -3.941858 -9.435593 -24.575961 34.108411 -7.369566 4.930125 17.117545 7.829083 -10.907686 21.151764 14.516189 25.773229 -0.843634 26.948619 -7.161946 3.283494 -7.576030 -0.000001 0.000001 0.000001 -7.027554 17.011802 15.480526 -5.454812 3.013851 30.334707 -0.000003 0.000001 -0.000002 -4.549495 8.400011 17.991167 -5.131606 4.859733 29.183189 0.000003 0.000000 0.000000 -1.241918 -0.308180 23.902824 -6.748436 7.012319 33.664664 0.000001 -0.000000 -0.000001 2.635066 -9.437142 17.184792 -10.949382 10.773491 43.497349 0.000002 0.000001 0.000002 -0.000000 0.000001 0.000000 0.000001 0.000000 -0.000000 0.000001 0.000000 -0.000000 0.000001 0.000000 -0.000000 0.000001 0.000000 -0.000000 0.000001 0.000000 -0.000000 0.000001 0.000000 -0.000001 0.000001 0.000000 -0.000000 0.000001 0.000000 -0.000000 0.000001 0.000000 -0.000000 0.000002 0.000000 -0.000000 -0.000000 0.000003 0.000000 -0.000000 0.000003 0.000000 -0.000000 0.000003 0.000000 
-7.112922 77.686562 -0.905068 -14.543071 -40.116392 -5.021106 0.000001 0.000001 -0.000000 -8.512665 9.275269 6.306286 12.764881 -24.486949 2.849590 37.910620 -1.717717 -12.817285 -0.000003 -0.000003 0.000001 0.000001 0.000000 -0.000000 14.690895 -18.387349 -7.630572 8.628208 -1.256763 -2.252123 17.762856 0.286734 14.075246 -0.000003 -0.000001 -0.000001 -0.000000 0.000001 -0.000000 5.007492 2.031130 -1.140430 10.072721 3.936680 -2.636163 10.072721 3.936688 -2.636163 8.079805 2.146869 6.397280 8.432126 15.201848 -11.751666 0.000000 0.000000 -0.000000 0.000000 0.000000 -0.000000 -0.000002 0.000000 -0.000000 0.000000 0.000000 -0.000000 0.000000 0.000000 -0.000000 0.000000 0.000000 -0.000000 0.000000 0.000000 -0.000000 0.000000 0.000000 -0.000000 -0.000002 0.000000 -0.000000 -4.630811 17.333255 25.051011 -24.092748 -28.020141 8.592052 7.748972 -31.010319 -9.111079 4.492727 -6.511865 20.968121 9.586371 8.076163 -7.131249 -11.389739 -12.450743 5.918022 0.000003 -0.000001 -0.000000 -8.495613 -17.301332 -24.746020 -8.268020 -4.650619 -38.965454 0.000002 -0.000001 -0.000002 -5.311333 -10.425745 -26.855903 -7.567911 -6.442164 -37.861494 -0.000001 0.000001 0.000001 -4.488364 -1.532960 -32.185047 -8.233559 -6.909957 -42.656635 -0.000002 0.000002 -0.000000 -0.976592 8.156204 -24.773455 -11.195370 -8.868566 -52.854087 0.000000 -0.000001 0.000001 0.000001 0.000001 -0.000000 0.029636 -5.466248 -10.974515 -25.286216 32.620171 -7.887444 3.512716 14.260740 6.549190 -11.910344 20.676222 18.433554 24.907535 -2.071126 25.314920 -7.295701 3.596032 -7.530918 -0.000000 -0.000001 -0.000000 -6.515458 16.535975 14.417061 -5.194487 2.890879 29.282534 -0.000003 0.000000 0.000001 -4.365523 8.235713 16.913963 -4.888179 4.719997 28.050612 -0.000003 0.000000 -0.000001 -1.248341 -0.315305 22.777737 -6.487120 6.897309 32.506742 0.000001 -0.000000 0.000003 2.428044 -9.299009 15.941356 -10.676277 10.729237 42.336753 -0.000002 0.000000 -0.000001 -0.000001 -0.000001 -0.000001 0.000001 -0.000000 0.000000 0.000001 -0.000000 0.000000 0.000001 -0.000000 0.000000 0.000001 -0.000000 0.000000 0.000001 -0.000000 0.000000 0.000001 -0.000000 -0.000000 0.000001 -0.000000 0.000000 0.000001 -0.000000 0.000000 0.000001 -0.000000 0.000000 0.000001 -0.000000 0.000000 0.000001 0.000001 -0.000000 0.000001 0.000001 -0.000000 0.000001 0.000001 -0.000000 
